<svg height="512" viewBox="0 0 512 512" width="512" xmlns="http://www.w3.org/2000/svg"><g id="filled_outline" data-name="filled outline"><path d="m144 192h32v104h-32z" fill="#6a9876"/><path d="m160 200a48 48 0 0 0 48-48v-64l-96 48v16a48 48 0 0 0 48 48z" fill="#f0a5a8"/><path d="m160 200a48 48 0 0 1 -48-48v-72l96 56v16a48 48 0 0 1 -48 48z" fill="#ffb1b4"/><path d="m160 176a24.027 24.027 0 0 1 -24-24 8 8 0 0 1 16 0 8.005 8.005 0 0 0 8 8 8 8 0 0 1 0 16z" fill="#f0a5a8"/><path d="m228.859 194.43a8 8 0 0 1 -2.656-15.547l5.469-1.922a110.274 110.274 0 0 1 50.117-5.305 8 8 0 1 1 -2.016 15.875 94.5 94.5 0 0 0 -42.8 4.524l-5.461 1.922a7.93 7.93 0 0 1 -2.653.453z" fill="#fbeebd"/><path d="m91.789 192.844a7.95 7.95 0 0 1 -2.086-.274l-6.117-1.648a94.324 94.324 0 0 0 -43.024-1.344 8 8 0 0 1 -3.187-15.672 110.177 110.177 0 0 1 50.367 1.563l6.117 1.648a8 8 0 0 1 -2.07 15.727z" fill="#fbeebd"/><path d="m280.5 231.049a233.991 233.991 0 0 0 -98.216 58.664l-6.284 6.287h-32v-32l22.564-15.043a233.988 233.988 0 0 1 108.607-38.336l1.357-.124a10.52 10.52 0 0 1 11.472 10.476 10.519 10.519 0 0 1 -7.5 10.076z" fill="#8bc89c"/><path d="m47.748 230.866 8.511 2.27a152.753 152.753 0 0 1 87.741 62.864h32v-7.765a52.694 52.694 0 0 0 -18.4-40.007 152.753 152.753 0 0 0 -86.955-36.266l-19.355-1.584a10.438 10.438 0 0 0 -11.29 10.403 10.437 10.437 0 0 0 7.748 10.085z" fill="#97d9a9"/><path d="m328 280-1.373 1.373a77.251 77.251 0 0 0 -22.627 54.627v56h128v-96l48-48-56-64z" fill="#ff9201"/><path d="m224 424h-73.837a127.265 127.265 0 0 1 -118.163-80h240v32a48 48 0 0 1 -48 48z" fill="#d9d9d9"/><path d="m272 344h176a16 16 0 0 1 16 16 16 16 0 0 1 -16 16h-176a0 0 0 0 1 0 0v-32a0 0 0 0 1 0 0z" fill="#995701"/><path d="m40 344 26.1-22.839a134.024 134.024 0 0 1 88.258-33.161 134.022 134.022 0 0 1 101.758 46.8l7.884 9.2z" fill="#905638"/><path d="m336 352a8 8 0 0 1 0-16 24.027 24.027 0 0 0 24-24v-8a8 8 0 0 1 16 0v8a40.047 40.047 0 0 1 -40 40z" fill="#e98503"/><path d="m463.17 264.83-25.17-28.525a8 8 0 0 0 -12 10.595l25.829 29.273z" fill="#e98503"/><path d="m200 400h-52.977a8 8 0 0 1 0-16h52.977a8 8 0 0 1 0 16z" fill="#ebebeb"/><path d="m120 393.5a8.028 8.028 0 0 1 -2.867-.531 105.7 105.7 0 0 1 -16.422-8.016l-3.492-2.094a8 8 0 0 1 8.234-13.718l3.492 2.093a88.84 88.84 0 0 0 13.922 6.8 8 8 0 0 1 -2.867 15.466z" fill="#ebebeb"/><g fill="#75462e"><path d="m150.828 303.063h16v15.234h-16z"/><path d="m182.828 311.063h16v15.234h-16z"/><path d="m118.828 311.063h16v15.234h-16z"/></g><path d="m373.861 376a15.993 15.993 0 0 1 -13.861 8h-40a15.993 15.993 0 0 1 -13.839-7.965z" fill="#e58302"/><path d="m272 344h32v32h-32z" fill="#a8a8a8"/><path d="m49.418 335.759-9.418 8.241h224l-7.064-8.241z" fill="#75462e"/><path d="m360 352h-56v16a15.84 15.84 0 0 0 2.219 8h67.562a15.84 15.84 0 0 0 2.219-8 16 16 0 0 0 -16-16z" fill="#844b02"/><path d="m360 376h-40a16 16 0 0 1 -16-16v-24h24v8h32a16 16 0 0 1 16 16 16 16 0 0 1 -16 16z" fill="#ff9201"/><path d="m304 376h128v16h-128z" fill="#e98503"/><path d="m416 376a16 16 0 0 0 -16 16 16 16 0 0 0 -32 0 16 16 0 0 0 -32 0 16 16 0 0 0 -32 0v16a16 16 0 0 0 32 0 16 16 0 0 0 32 0 16 16 0 0 0 32 0 16 16 0 0 0 32 0v-16a16 16 0 0 0 -16-16z" fill="#ff9201"/><path d="m485.657 253.657a8 8 0 0 0 .364-10.925l-56-64a8 8 0 0 0 -5.754-2.727 7.9 7.9 0 0 0 -5.924 2.338l-97.361 97.357a85.869 85.869 0 0 0 -24.982 60.3h-28.321l-5.489-6.4a141.867 141.867 0 0 0 -64.964-42.976 226.83 226.83 0 0 1 85.579-47.924 18.517 18.517 0 0 0 -6.97-36.181c-.069.006-.138.012-.206.021l-1.257.147a243.712 243.712 0 0 0 -90.372 26.705v-26.806a56.068 56.068 0 0 0 32-50.586v-64a8 8 0 0 0 -11.578-7.155l-40.437 20.218-47.954-27.973a8 8 0 0 0 -12.031 6.91v72a56.068 56.068 0 0 0 32 50.586v21.014a170.592 170.592 0 0 0 -15.972-7.785 159.983 159.983 0 0 0 -48.728-11.788l-19.389-1.6a18.431 18.431 0 0 0 -6.193 36.189l8.452 2.234a145.82 145.82 0 0 1 69.783 42.45 141.969 141.969 0 0 0 -63.118 31.842l-23.84 20.858h-4.995a8 8 0 0 0 -7.428 10.971 135.267 135.267 0 0 0 125.59 85.029h73.838a56.078 56.078 0 0 0 55.419-48h17.957a23.885 23.885 0 0 0 -1.376 8v16a23.984 23.984 0 0 0 40 17.869 23.943 23.943 0 0 0 32 0 23.943 23.943 0 0 0 32 0 23.984 23.984 0 0 0 40-17.869v-24h8a24.112 24.112 0 0 0 24-24 24.028 24.028 0 0 0 -24-24h-8v-36.687zm-188.281 114.343h-17.376v-16h16v8a23.885 23.885 0 0 0 1.376 8zm-21.451-149.394c.068 0 .137-.012.206-.021l1.223-.143a2.4 2.4 0 0 1 1.818.644 2.523 2.523 0 0 1 -.992 4.292 242.839 242.839 0 0 0 -94.18 53.649v-29.381a227.6 227.6 0 0 1 91.925-29.04zm-75.925-117.662v21.128l-19.5-11.372zm-80 51.056v-58.071l39.459 23.017c.147.091.295.18.447.261l40.094 23.393v11.4a40.065 40.065 0 0 1 -25.977 37.457 7.876 7.876 0 0 0 -1.34.47 39.835 39.835 0 0 1 -25.366 0 7.876 7.876 0 0 0 -1.34-.47 40.065 40.065 0 0 1 -25.977-37.457zm40 56a56.14 56.14 0 0 0 8-.581v39.781a60.774 60.774 0 0 0 -5.2-5.04c-3.58-3.059-7.138-5.855-10.8-8.486v-26.255a56.14 56.14 0 0 0 8 .581zm-101.717 17.386-8.483-2.242a2.453 2.453 0 0 1 -1.8-2.344 2.406 2.406 0 0 1 .782-1.778 2.468 2.468 0 0 1 1.839-.649l19.384 1.6a144.008 144.008 0 0 1 43.834 10.591 153.171 153.171 0 0 1 25.67 13.893l.029.021a144.359 144.359 0 0 1 12.858 9.837 44.566 44.566 0 0 1 14.941 26.285c-4.295-.393-8.624-.6-12.98-.6q-5.917 0-11.78.5a161.694 161.694 0 0 0 -84.294-55.114zm13.088 101.8a126 126 0 0 1 175.069 8.814h-185.148zm152.629 88.814h-73.838a119.289 119.289 0 0 1 -105.694-64h219.532v24a40.045 40.045 0 0 1 -40 40zm96 0a8.009 8.009 0 0 1 -8-8v-16a8 8 0 0 1 16 0v16a8.009 8.009 0 0 1 -8 8zm32 0a8.009 8.009 0 0 1 -8-8v-16a8 8 0 0 1 16 0v16a8.009 8.009 0 0 1 -8 8zm32 0a8.009 8.009 0 0 1 -8-8v-16a8 8 0 0 1 16 0v16a8.009 8.009 0 0 1 -8 8zm40-8a8 8 0 0 1 -16 0v-16a8 8 0 0 1 16 0zm32-48a7.653 7.653 0 0 1 -2.3 5.546l-.155.155a7.653 7.653 0 0 1 -5.545 2.299h-65.44a23.774 23.774 0 0 0 .106-16h65.334a8.009 8.009 0 0 1 8 8zm-88.026-24a39.785 39.785 0 0 0 8.026-24v-8a8 8 0 0 0 -16 0v8a24.028 24.028 0 0 1 -24 24 8 8 0 0 0 0 16h24.151a7.848 7.848 0 0 1 .043 15.7 7.976 7.976 0 0 0 -2.115.3h-38.079a8.009 8.009 0 0 1 -8-8v-24a69.75 69.75 0 0 1 20.3-48.982l91.31-91.318 45.441 51.933-11.186 11.185-19.865-22.51a8 8 0 0 0 -12 10.586l20.527 23.263-20.185 20.186a8 8 0 0 0 -2.342 5.657v40z"/><path d="m200 384h-52.976a8 8 0 0 0 0 16h52.976a8 8 0 0 0 0-16z"/><path d="m122.87 378.029a89.787 89.787 0 0 1 -13.928-6.793l-3.492-2.095a8 8 0 0 0 -8.232 13.718l3.492 2.1a105.8 105.8 0 0 0 16.418 8.007 8 8 0 1 0 5.742-14.934z"/><path d="m160 176a8 8 0 0 0 0-16 8.009 8.009 0 0 1 -8-8 8 8 0 0 0 -16 0 24.028 24.028 0 0 0 24 24z"/><path d="m228.862 194.429a8 8 0 0 0 2.648-.453l5.466-1.916a94.086 94.086 0 0 1 42.8-4.531 8 8 0 1 0 2.017-15.873 110.2 110.2 0 0 0 -50.112 5.305l-5.466 1.917a8 8 0 0 0 2.647 15.551z"/><path d="m40.562 189.581a94.12 94.12 0 0 1 43.018 1.341l6.119 1.647a8 8 0 1 0 4.16-15.449l-6.119-1.647a110.228 110.228 0 0 0 -50.367-1.573 8 8 0 0 0 3.189 15.68z"/><path d="m150.825 303.063h16v15.231h-16z"/><path d="m182.825 311.063h16v15.231h-16z"/><path d="m118.825 311.063h16v15.231h-16z"/></g></svg>