<?xml version="1.0"?>
<svg xmlns="http://www.w3.org/2000/svg" viewBox="0 0 512 512" width="512" height="512"><g id="outline"><path d="M485.657,253.657a8,8,0,0,0,.364-10.925l-56-64a8,8,0,0,0-5.754-2.727,7.9,7.9,0,0,0-5.924,2.338L320.982,275.7A85.869,85.869,0,0,0,296,336H267.679l-5.489-6.4a141.867,141.867,0,0,0-64.964-42.976A226.83,226.83,0,0,1,282.805,238.7a18.517,18.517,0,0,0-6.97-36.181c-.069.006-.138.012-.206.021l-1.257.147A243.712,243.712,0,0,0,184,229.392V202.586A56.068,56.068,0,0,0,216,152V88a8,8,0,0,0-11.578-7.155l-40.437,20.218L116.031,73.09A8,8,0,0,0,104,80v72a56.068,56.068,0,0,0,32,50.586V223.6a170.592,170.592,0,0,0-15.972-7.785A159.983,159.983,0,0,0,71.3,204.027l-19.389-1.6a18.431,18.431,0,0,0-6.193,36.189l8.452,2.234A145.82,145.82,0,0,1,123.953,283.3a141.969,141.969,0,0,0-63.118,31.842L36.995,336H32a8,8,0,0,0-7.428,10.971A135.267,135.267,0,0,0,150.162,432H224a56.078,56.078,0,0,0,55.419-48h17.957A23.885,23.885,0,0,0,296,392v16a23.984,23.984,0,0,0,40,17.869,23.943,23.943,0,0,0,32,0,23.943,23.943,0,0,0,32,0A23.984,23.984,0,0,0,440,408V384h8a24.112,24.112,0,0,0,24-24,24.028,24.028,0,0,0-24-24h-8V299.313ZM297.376,368H280V352h16v8A23.885,23.885,0,0,0,297.376,368ZM275.925,218.606c.068,0,.137-.012.206-.021l1.223-.143a2.4,2.4,0,0,1,1.818.644,2.523,2.523,0,0,1-.992,4.292A242.839,242.839,0,0,0,184,277.027V247.646A227.6,227.6,0,0,1,275.925,218.606ZM200,100.944v21.128L180.5,110.7ZM120,152V93.929l39.459,23.017c.147.091.295.18.447.261L200,140.6V152a40.065,40.065,0,0,1-25.977,37.457,7.876,7.876,0,0,0-1.34.47,39.835,39.835,0,0,1-25.366,0,7.876,7.876,0,0,0-1.34-.47A40.065,40.065,0,0,1,120,152Zm40,56a56.14,56.14,0,0,0,8-.581V247.2a60.774,60.774,0,0,0-5.2-5.04c-3.58-3.059-7.138-5.855-10.8-8.486V207.419A56.14,56.14,0,0,0,160,208ZM58.283,225.386,49.8,223.144A2.453,2.453,0,0,1,48,220.8a2.406,2.406,0,0,1,.782-1.778,2.468,2.468,0,0,1,1.839-.649l19.384,1.6a144.008,144.008,0,0,1,43.834,10.591,153.171,153.171,0,0,1,25.67,13.893l.029.021a144.359,144.359,0,0,1,12.858,9.837A44.566,44.566,0,0,1,167.337,280.6c-4.295-.393-8.624-.6-12.98-.6q-5.917,0-11.78.5A161.694,161.694,0,0,0,58.283,225.386Zm13.088,101.8A126,126,0,0,1,246.44,336H61.292ZM224,416H150.162A119.289,119.289,0,0,1,44.468,352H264v24A40.045,40.045,0,0,1,224,416Zm96,0a8.009,8.009,0,0,1-8-8V392a8,8,0,0,1,16,0v16A8.009,8.009,0,0,1,320,416Zm32,0a8.009,8.009,0,0,1-8-8V392a8,8,0,0,1,16,0v16A8.009,8.009,0,0,1,352,416Zm32,0a8.009,8.009,0,0,1-8-8V392a8,8,0,0,1,16,0v16A8.009,8.009,0,0,1,384,416Zm40-8a8,8,0,0,1-16,0V392a8,8,0,0,1,16,0Zm32-48a7.653,7.653,0,0,1-2.3,5.546l-.155.155A7.653,7.653,0,0,1,448,368H382.56a23.774,23.774,0,0,0,.106-16H448A8.009,8.009,0,0,1,456,360Zm-88.026-24A39.785,39.785,0,0,0,376,312v-8a8,8,0,0,0-16,0v8a24.028,24.028,0,0,1-24,24,8,8,0,0,0,0,16h24.151a7.848,7.848,0,0,1,.043,15.7,7.976,7.976,0,0,0-2.115.3H320a8.009,8.009,0,0,1-8-8V336a69.75,69.75,0,0,1,20.3-48.982L423.61,195.7l45.441,51.933-11.186,11.185L438,236.308a8,8,0,0,0-12,10.586l20.527,23.263-20.185,20.186A8,8,0,0,0,424,296v40Z"/><path d="M200,384H147.024a8,8,0,0,0,0,16H200a8,8,0,0,0,0-16Z"/><path d="M122.87,378.029a89.787,89.787,0,0,1-13.928-6.793l-3.492-2.095a8,8,0,0,0-8.232,13.718l3.492,2.1a105.8,105.8,0,0,0,16.418,8.007,8,8,0,1,0,5.742-14.934Z"/><path d="M160,176a8,8,0,0,0,0-16,8.009,8.009,0,0,1-8-8,8,8,0,0,0-16,0A24.028,24.028,0,0,0,160,176Z"/><path d="M228.862,194.429a8,8,0,0,0,2.648-.453l5.466-1.916a94.086,94.086,0,0,1,42.8-4.531,8,8,0,1,0,2.017-15.873,110.2,110.2,0,0,0-50.112,5.305l-5.466,1.917a8,8,0,0,0,2.647,15.551Z"/><path d="M40.562,189.581a94.12,94.12,0,0,1,43.018,1.341l6.119,1.647a8,8,0,1,0,4.16-15.449l-6.119-1.647A110.228,110.228,0,0,0,37.373,173.9a8,8,0,0,0,3.189,15.68Z"/><rect x="150.825" y="303.063" width="16" height="15.231"/><rect x="182.825" y="311.063" width="16" height="15.231"/><rect x="118.825" y="311.063" width="16" height="15.231"/></g></svg>
