<svg height="512" viewBox="0 0 64 64" width="512" xmlns="http://www.w3.org/2000/svg"><g id="plants-growth-hand-chat"><rect fill="#c2dff6" height="30" rx="2" width="46" x="9" y="23"/><path d="m23 46h3v4h-3z" fill="#ff5023"/><path d="m14.5 53-.5 2 1 7h-9v-5l-3-4v-8l3-5 3-2v10h1l2.72-2.72a2.21 2.21 0 0 1 3.61 2.39l-1.33 3.33z" fill="#ffdaaa"/><path d="m29 44h3v6h-3z" fill="#ff5023"/><path d="m35 42h3v8h-3z" fill="#ff5023"/><path d="m53 41a2.006 2.006 0 0 1 2-2 2.015 2.015 0 0 1 2 2v1a2.015 2.015 0 0 1 2-2 2.006 2.006 0 0 1 2 2v12l-3 4v4h-13v-5l-3-4v-8l3-3v-8a2.006 2.006 0 0 1 2-2 2.015 2.015 0 0 1 2 2v7a2.006 2.006 0 0 1 2-2 2.015 2.015 0 0 1 2 2z" fill="#ffdaaa"/><path d="m39 12h3a7 7 0 0 1 -7 7h-3a7 7 0 0 1 7-7z" fill="#64c37d"/><path d="m39 3h3a7 7 0 0 1 -7 7h-3a7 7 0 0 1 7-7z" fill="#64c37d"/><path d="m11 20v-9h-3l5-5 5 5h-3v9z" fill="#ffda44"/><path d="m50 17v-9h-3l5-5 5 5h-3v9z" fill="#ffda44"/><path d="m13 31h4v2h-4z" fill="#1a6fb0"/><path d="m13 35h6v2h-6z" fill="#1a6fb0"/><path d="m33 30h-2v-20a1 1 0 0 1 1-1 1 1 0 0 1 1 1z" fill="#4e901e"/><path d="m32 28 8 10h-16z" fill="#b39a7c"/><path d="m32 23h-3a7 7 0 0 1 -7-7h3a7 7 0 0 1 7 7z" fill="#91dc5a"/><path d="m32 13h-3a7 7 0 0 1 -7-7h3a7 7 0 0 1 7 7z" fill="#91dc5a"/><path d="m22 37h20v2h-20z" fill="#6a563d"/><path d="m31.241 35.65-5.701-6.65h-12.54v-2h13a1 1 0 0 1 .759.349l6 7z" fill="#ffeb99"/><path d="m21 49h19v2h-19z" fill="#1a6fb0"/></g></svg>