<?xml version="1.0"?>
<svg xmlns="http://www.w3.org/2000/svg" viewBox="0 0 64 64" width="512" height="512"><g id="plants-growth-hand-chat"><path d="M59,39a2.942,2.942,0,0,0-1.47.4A3.032,3.032,0,0,0,56,38.18V25a3.009,3.009,0,0,0-3-3H33V20h2a8.011,8.011,0,0,0,8-8,1,1,0,0,0-1-1H39a7.974,7.974,0,0,0-6,2.73V11h2a8.011,8.011,0,0,0,8-8,1,1,0,0,0-1-1H39a8,8,0,0,0-7.74,6.03A8.008,8.008,0,0,0,25,5H22a1,1,0,0,0-1,1,8.011,8.011,0,0,0,8,8h2v3.73A7.974,7.974,0,0,0,25,15H22a1,1,0,0,0-1,1,7.974,7.974,0,0,0,2.73,6H11a3.009,3.009,0,0,0-3,3V37.46L5.45,39.17a.949.949,0,0,0-.31.32l-3,5A1,1,0,0,0,2,45v8a.984.984,0,0,0,.2.6L5,57.33V62H7V57a.984.984,0,0,0-.2-.6L4,52.67V45.28l2.74-4.57L8,39.87V47H7v2h3a1.033,1.033,0,0,0,.71-.29l2.72-2.72a1.211,1.211,0,0,1,1.98,1.3l-1.34,3.34a.5.5,0,0,0-.04.13l-1,4a.966.966,0,0,0-.02.38l1,7,1.98-.28-.97-6.81L15.28,54H41.5L44,57.33V62h2V57a.984.984,0,0,0-.2-.6L43,52.67V45.41l1-1V48h2V34a1,1,0,0,1,2,0V48h2V41a1,1,0,0,1,2,0v7h2V41a1,1,0,0,1,2,0v7h2V42a1,1,0,0,1,2,0V53.67L57.2,57.4a.984.984,0,0,0-.2.6v4h2V58.33l2.8-3.73A.984.984,0,0,0,62,54V42A3.009,3.009,0,0,0,59,39ZM39,13h1.92A6.017,6.017,0,0,1,35,18H33.08A6.017,6.017,0,0,1,39,13Zm0-9h1.92A6.017,6.017,0,0,1,35,9H33.08A6.017,6.017,0,0,1,39,4ZM29,12a6.017,6.017,0,0,1-5.92-5H25a6.017,6.017,0,0,1,5.92,5Zm3,17.6L37.92,37H26.08l3.05-3.81,2.11,2.46,1.52-1.3L30.4,31.6ZM23.08,17H25a6.017,6.017,0,0,1,5.92,5H29A6.017,6.017,0,0,1,23.08,17ZM54,38.18a3.174,3.174,0,0,0-1,.6A2.974,2.974,0,0,0,51,38a3,3,0,0,0-1,.18V34a3,3,0,0,0-6,0v7.59l-2.71,2.7A1.033,1.033,0,0,0,41,45v7H15.78l.17-.69,1.31-3.27a3.212,3.212,0,0,0-5.25-3.47L10,46.59V25a1,1,0,0,1,1-1H31v3.65l-1.92,2.4-2.32-2.7A1.011,1.011,0,0,0,26,27H13v2H25.54l2.27,2.64L23.52,37H22v2H42V37H40.48L33,27.65V24H53a1,1,0,0,1,1,1Z"/><rect x="13" y="31" width="4" height="2"/><rect x="13" y="35" width="6" height="2"/><path d="M39,49V42a1,1,0,0,0-1-1H35a1,1,0,0,0-1,1v7H33V44a1,1,0,0,0-1-1H29a1,1,0,0,0-1,1v5H27V46a1,1,0,0,0-1-1H23a1,1,0,0,0-1,1v3H21v2H40V49ZM25,49H24V47h1Zm6,0H30V45h1Zm6,0H36V43h1Z"/><rect x="49" y="13" width="2" height="2"/><path d="M47,9h2v2h2V8a1,1,0,0,0-1-1h-.586L52,4.414,54.586,7H54a1,1,0,0,0-1,1v9h2V9h2a1,1,0,0,0,.707-1.707l-5-5a1,1,0,0,0-1.414,0l-5,5A1,1,0,0,0,47,9Z"/><rect x="14" y="16" width="2" height="2"/><path d="M8,12h2v8h2V11a1,1,0,0,0-1-1h-.586L13,7.414,15.586,10H15a1,1,0,0,0-1,1v3h2V12h2a1,1,0,0,0,.707-1.707l-5-5a1,1,0,0,0-1.414,0l-5,5A1,1,0,0,0,8,12Z"/></g></svg>
