<svg id="schedule" enable-background="new 0 0 300 300" height="512" viewBox="0 0 300 300" width="512" xmlns="http://www.w3.org/2000/svg"><g><circle cx="116" cy="114" fill="#efefd2" r="86"/><g fill="#4c241d"><path d="m90 48c-2.211 0-4-1.791-4-4v-12c0-2.209 1.789-4 4-4s4 1.791 4 4v12c0 2.209-1.789 4-4 4z"/><path d="m90 76c-2.211 0-4-1.791-4-4v-12c0-2.209 1.789-4 4-4s4 1.791 4 4v12c0 2.209-1.789 4-4 4z"/><path d="m82 56h-12c-2.211 0-4-1.791-4-4s1.789-4 4-4h12c2.211 0 4 1.791 4 4s-1.789 4-4 4z"/><path d="m110 56h-12c-2.211 0-4-1.791-4-4s1.789-4 4-4h12c2.211 0 4 1.791 4 4s-1.789 4-4 4z"/></g><g><path d="m266 212h-216v-109.472c0-10.232 8.296-18.528 18.528-18.528h178.943c10.233 0 18.529 8.296 18.529 18.528z" fill="#efefd2"/><path d="m266 216h-216c-2.211 0-4-1.791-4-4v-109.471c0-12.422 10.105-22.529 22.527-22.529h178.945c12.423 0 22.528 10.107 22.528 22.529v109.471c0 2.209-1.789 4-4 4zm-212-8h208v-105.471c0-8.011-6.516-14.529-14.527-14.529h-178.946c-8.011 0-14.527 6.518-14.527 14.529z" fill="#4c241d"/></g><g><path d="m266 212h-216v9.472c0 10.232 8.296 18.528 18.528 18.528h178.943c10.233 0 18.528-8.296 18.528-18.528v-9.472z" fill="#fff"/><path d="m247.473 244h-178.946c-12.422 0-22.527-10.107-22.527-22.529v-9.471c0-2.209 1.789-4 4-4h216c2.211 0 4 1.791 4 4v9.471c0 12.422-10.105 22.529-22.527 22.529zm-193.473-28v5.471c0 8.011 6.516 14.529 14.527 14.529h178.945c8.012 0 14.527-6.518 14.527-14.529v-5.471z" fill="#4c241d"/></g><path d="m165.712 226.116c0 3.378-2.738 6.117-6.116 6.117s-6.117-2.739-6.117-6.117 2.739-6.116 6.117-6.116 6.116 2.738 6.116 6.116z" fill="#4c241d"/><g><path d="m190 268h-60l8-28h44z" fill="#d6d6d6"/><path d="m190 272h-60c-1.254 0-2.438-.59-3.195-1.592-.754-1.002-.996-2.301-.652-3.508l8-28c.492-1.717 2.062-2.9 3.848-2.9h44c1.785 0 3.355 1.184 3.848 2.9l8 28c.344 1.207.102 2.506-.652 3.508-.759 1.002-1.943 1.592-3.197 1.592zm-54.695-8h49.391l-5.711-20h-37.969z" fill="#4c241d"/></g><path d="m130 272h-44c-2.211 0-4-1.791-4-4s1.789-4 4-4h44c2.211 0 4 1.791 4 4s-1.789 4-4 4z" fill="#4c241d"/><path d="m234 272h-44c-2.211 0-4-1.791-4-4s1.789-4 4-4h44c2.211 0 4 1.791 4 4s-1.789 4-4 4z" fill="#4c241d"/><g><path d="m246 148h-68v-106.655c0-2.952 2.393-5.345 5.345-5.345h57.31c2.952 0 5.345 2.393 5.345 5.345z" fill="#fff"/><path d="m246 152h-68c-2.211 0-4-1.791-4-4v-106.654c0-5.152 4.191-9.346 9.344-9.346h57.312c5.152 0 9.344 4.193 9.344 9.346v106.654c0 2.209-1.789 4-4 4zm-64-8h60v-102.654c0-.742-.602-1.346-1.344-1.346h-57.312c-.742 0-1.344.604-1.344 1.346z" fill="#4c241d"/></g><g><path d="m240.655 168h-57.31c-2.952 0-5.345-2.393-5.345-5.345v-14.655h68v14.655c0 2.952-2.393 5.345-5.345 5.345z" fill="#6b4f5b"/><path d="m240.656 172h-57.312c-5.152 0-9.344-4.193-9.344-9.346v-14.654c0-2.209 1.789-4 4-4h68c2.211 0 4 1.791 4 4v14.654c0 5.153-4.191 9.346-9.344 9.346zm-58.656-20v10.654c0 .742.602 1.346 1.344 1.346h57.312c.742 0 1.344-.604 1.344-1.346v-10.654z" fill="#4c241d"/></g><circle cx="212" cy="158" fill="#4c241d" r="6"/><g><path d="m70 104h60v28h-60z" fill="#e66353"/><path d="m130 136h-60c-2.211 0-4-1.791-4-4v-28c0-2.209 1.789-4 4-4h60c2.211 0 4 1.791 4 4v28c0 2.209-1.789 4-4 4zm-56-8h52v-20h-52z" fill="#4c241d"/></g><g><path d="m70 168h32v28h-32z" fill="#a9ba5a"/><path d="m102 200h-32c-2.211 0-4-1.791-4-4v-28c0-2.209 1.789-4 4-4h32c2.211 0 4 1.791 4 4v28c0 2.209-1.789 4-4 4zm-28-8h24v-20h-24z" fill="#4c241d"/></g><g><path d="m114 168h32v28h-32z" fill="#ffce56"/><path d="m146 200h-32c-2.211 0-4-1.791-4-4v-28c0-2.209 1.789-4 4-4h32c2.211 0 4 1.791 4 4v28c0 2.209-1.789 4-4 4zm-28-8h24v-20h-24z" fill="#4c241d"/></g><path d="m98 148h-28c-2.211 0-4-1.791-4-4s1.789-4 4-4h28c2.211 0 4 1.791 4 4s-1.789 4-4 4z" fill="#4c241d"/><path d="m154 148h-40c-2.211 0-4-1.791-4-4s1.789-4 4-4h40c2.211 0 4 1.791 4 4s-1.789 4-4 4z" fill="#4c241d"/><path d="m130 160h-60c-2.211 0-4-1.791-4-4s1.789-4 4-4h60c2.211 0 4 1.791 4 4s-1.789 4-4 4z" fill="#4c241d"/><path d="m207.996 105.977c-1.18 0-2.301-.521-3.062-1.426l-6.301-7.496c-1.422-1.691-1.203-4.215.488-5.637s4.211-1.201 5.637.488l3.121 3.713 10.965-14.078c1.355-1.744 3.867-2.055 5.613-.697 1.742 1.357 2.055 3.871.699 5.615l-14.004 17.977c-.742.951-1.875 1.518-3.082 1.541-.023 0-.05 0-.074 0z" fill="#a9ba5a"/></g></svg>