<svg id="schedule" enable-background="new 0 0 300 300" height="512" viewBox="0 0 300 300" width="512" xmlns="http://www.w3.org/2000/svg"><g><path d="m82 48c2.211 0 4-1.791 4-4v-12c0-2.209-1.789-4-4-4s-4 1.791-4 4v12c0 2.209 1.789 4 4 4z"/><path d="m82 56c-2.211 0-4 1.791-4 4v12c0 2.209 1.789 4 4 4s4-1.791 4-4v-12c0-2.209-1.789-4-4-4z"/><path d="m62 56h12c2.211 0 4-1.791 4-4s-1.789-4-4-4h-12c-2.211 0-4 1.791-4 4s1.789 4 4 4z"/><path d="m90 56h12c2.211 0 4-1.791 4-4s-1.789-4-4-4h-12c-2.211 0-4 1.791-4 4s1.789 4 4 4z"/><path d="m242 80.151v-38.805c0-5.152-4.191-9.346-9.344-9.346h-57.312c-5.152 0-9.344 4.193-9.344 9.346v38.654h-105.473c-12.422 0-22.527 10.107-22.527 22.529v118.941c0 12.423 10.105 22.53 22.527 22.53h64.168l-5.712 20h-40.983c-2.211 0-4 1.791-4 4s1.789 4 4 4h148c2.211 0 4-1.791 4-4s-1.789-4-4-4h-40.983l-5.715-20h60.17c12.423 0 22.528-10.107 22.528-22.529v-118.942c0-11.566-8.765-21.116-20-22.378zm-68 71.849h30 30v10.654c0 .742-.602 1.346-1.344 1.346h-28.656-28.656c-.742 0-1.344-.604-1.344-1.346zm1.344-112h57.312c.742 0 1.344.604 1.344 1.346v102.654h-60v-102.654c0-.742.602-1.346 1.344-1.346zm-114.817 48h105.473v74.654c0 5.152 4.191 9.346 9.344 9.346h57.312c5.152 0 9.344-4.193 9.344-9.346v-74.398c6.806 1.204 12 7.127 12 14.274v105.47h-208v-105.471c0-8.011 6.516-14.529 14.527-14.529zm116.167 176h-49.388l5.713-20h37.961zm62.779-28h-178.946c-8.011 0-14.527-6.518-14.527-14.529v-5.471h208v5.471c0 8.011-6.516 14.529-14.527 14.529z"/><path d="m151.596 220c-3.378 0-6.117 2.738-6.117 6.116s2.739 6.117 6.117 6.117 6.116-2.739 6.116-6.117-2.738-6.116-6.116-6.116z"/><circle cx="204" cy="158" r="6"/><path d="m62 136h60c2.211 0 4-1.791 4-4v-28c0-2.209-1.789-4-4-4h-60c-2.211 0-4 1.791-4 4v28c0 2.209 1.789 4 4 4zm4-28h52v20h-52z"/><path d="m62 200h32c2.211 0 4-1.791 4-4v-28c0-2.209-1.789-4-4-4h-32c-2.211 0-4 1.791-4 4v28c0 2.209 1.789 4 4 4zm4-28h24v20h-24z"/><path d="m138 164h-32c-2.211 0-4 1.791-4 4v28c0 2.209 1.789 4 4 4h32c2.211 0 4-1.791 4-4v-28c0-2.209-1.789-4-4-4zm-4 28h-24v-20h24z"/><path d="m62 148h28c2.211 0 4-1.791 4-4s-1.789-4-4-4h-28c-2.211 0-4 1.791-4 4s1.789 4 4 4z"/><path d="m102 144c0 2.209 1.789 4 4 4h40c2.211 0 4-1.791 4-4s-1.789-4-4-4h-40c-2.211 0-4 1.791-4 4z"/><path d="m62 160h60c2.211 0 4-1.791 4-4s-1.789-4-4-4h-60c-2.211 0-4 1.791-4 4s1.789 4 4 4z"/><path d="m196.934 104.551c.762.904 1.883 1.426 3.062 1.426h.074c1.207-.023 2.34-.59 3.082-1.541l14.004-17.977c1.355-1.744 1.043-4.258-.699-5.615-1.746-1.357-4.258-1.047-5.613.697l-10.965 14.078-3.121-3.713c-1.426-1.689-3.945-1.91-5.637-.488s-1.91 3.945-.488 5.637z"/></g></svg>